# xmcd CD database file
#
# Track frame offsets:
#	150
#	15831
#	29405
#	42249
#	54010
#	64225
#	76110
#	94391
#	114472
#	129105
#	147685
#	165358
#
# Disc length: 2319 seconds
#
# Revision: 1
# Processed by: cddbd v1.5.2PL0 Copyright (c) Steve Scherf et al.
# Submitted via: CDex 1.51
#
DISCID=8e090d0c
DTITLE=Freda Payne - After The Lights Go Down Low And Much More!!!
DYEAR=1900
DGENRE=Jazz
TTITLE0=After the Lights Go Down Low
TTITLE1=Sweet Pumpkin
TTITLE2=Blue Piano
TTITLE3=The Things We Love To Do
TTITLE4=Awaken My Lonely One
TTITLE5=Sweet September
TTITLE6=I Cried for You
TTITLE7='Round Midnight
TTITLE8=Out of This World
TTITLE9=Lonely Woman
TTITLE10=I Wish I Knew
TTITLE11=It's Time
EXTD=
EXTT0=
EXTT1=
EXTT2=
EXTT3=
EXTT4=
EXTT5=
EXTT6=
EXTT7=
EXTT8=
EXTT9=
EXTT10=
EXTT11=
PLAYORDER=
